<svg width="122" height="132" viewBox="0 0 122 132" fill="none" xmlns="http://www.w3.org/2000/svg">
<g filter="url(#filter0_d)">
<rect x="30" width="61.0237" height="61.0237" rx="25" fill="#FFF2C5"/>
<g clip-path="url(#clip0)">
<path fill-rule="evenodd" clip-rule="evenodd" d="M53.4214 27.2924L60.8665 41.9274L48.3525 27.2924H53.4214Z" fill="#EA6C00"/>
<path fill-rule="evenodd" clip-rule="evenodd" d="M68.315 27.2924L60.8698 41.9274L73.3838 27.2924H68.315Z" fill="#EA6C00"/>
<path fill-rule="evenodd" clip-rule="evenodd" d="M53.4219 27.2924H68.3122L60.867 41.9274L53.4219 27.2924Z" fill="#FDAD00"/>
<path fill-rule="evenodd" clip-rule="evenodd" d="M60.8671 19.1814L53.8137 19.9302L53.4219 27.2921L60.8671 19.1814Z" fill="#FDD231"/>
<path fill-rule="evenodd" clip-rule="evenodd" d="M60.8664 19.1814L67.9197 19.9302L68.3115 27.2921L60.8664 19.1814Z" fill="#FDD231"/>
<path fill-rule="evenodd" clip-rule="evenodd" d="M73.3838 27.2921L67.9231 19.9302L68.315 27.2921H73.3838Z" fill="#FDAD00"/>
<path fill-rule="evenodd" clip-rule="evenodd" d="M48.3525 27.2921L53.8132 19.9302L53.4214 27.2921H48.3525Z" fill="#FDAD00"/>
<path fill-rule="evenodd" clip-rule="evenodd" d="M60.867 19.1814L53.4219 27.2921H68.3122L60.867 19.1814Z" fill="#FEEEB7"/>
</g>
</g>
<defs>
<filter id="filter0_d" x="0" y="0" width="121.024" height="131.024" filterUnits="userSpaceOnUse" color-interpolation-filters="sRGB">
<feFlood flood-opacity="0" result="BackgroundImageFix"/>
<feColorMatrix in="SourceAlpha" type="matrix" values="0 0 0 0 0 0 0 0 0 0 0 0 0 0 0 0 0 0 127 0"/>
<feOffset dy="40"/>
<feGaussianBlur stdDeviation="15"/>
<feColorMatrix type="matrix" values="0 0 0 0 0.0980392 0 0 0 0 0.0980392 0 0 0 0 0.180392 0 0 0 0.04 0"/>
<feBlend mode="multiply" in2="BackgroundImageFix" result="effect1_dropShadow"/>
<feBlend mode="normal" in="SourceGraphic" in2="effect1_dropShadow" result="shape"/>
</filter>
<clipPath id="clip0">
<rect width="25.1723" height="22.8839" fill="white" transform="translate(48.3076 19.0698)"/>
</clipPath>
</defs>
</svg>
